<?xml version="1.0" encoding="UTF-8" standalone="no"?>
<!-- Created with Skedio (http://skedio.shturmsoft.com/) -->

<svg
   xmlns:dc="http://purl.org/dc/elements/1.1/"
   xmlns:cc="http://creativecommons.org/ns#"
   xmlns:rdf="http://www.w3.org/1999/02/22-rdf-syntax-ns#"
   xmlns:svg="http://www.w3.org/2000/svg"
   xmlns="http://www.w3.org/2000/svg"
   xmlns:sodipodi="http://sodipodi.sourceforge.net/DTD/sodipodi-0.dtd"
   xmlns:inkscape="http://www.inkscape.org/namespaces/inkscape"
   version="1.1"
   width="687.39398pt"
   height="437.79089pt"
   viewBox="0 0 687.39398 437.79089"
   id="svg7286"
   sodipodi:docname="softattn4_2approx.svg"
   inkscape:version="0.92.2 5c3e80d, 2017-08-06"
   inkscape:export-filename="/Users/krissankaran/Downloads/softattn4_2approx.png"
   inkscape:export-xdpi="100"
   inkscape:export-ydpi="100">
  <metadata
     id="metadata7292">
    <rdf:RDF>
      <cc:Work
         rdf:about="">
        <dc:format>image/svg+xml</dc:format>
        <dc:type
           rdf:resource="http://purl.org/dc/dcmitype/StillImage" />
        <dc:title />
      </cc:Work>
    </rdf:RDF>
  </metadata>
  <defs
     id="defs7290" />
  <sodipodi:namedview
     pagecolor="#ffffff"
     bordercolor="#666666"
     borderopacity="1"
     objecttolerance="10"
     gridtolerance="10"
     guidetolerance="10"
     inkscape:pageopacity="0"
     inkscape:pageshadow="2"
     inkscape:window-width="1488"
     inkscape:window-height="744"
     id="namedview7288"
     showgrid="false"
     inkscape:zoom="3.0737073"
     inkscape:cx="224.5267"
     inkscape:cy="229.84868"
     inkscape:window-x="5"
     inkscape:window-y="80"
     inkscape:window-maximized="0"
     inkscape:current-layer="layer1"
     inkscape:measure-start="0,0"
     inkscape:measure-end="0,0"
     fit-margin-top="0"
     fit-margin-left="0"
     fit-margin-right="0"
     fit-margin-bottom="0" />
  <g
     id="layer1"
     transform="rotate(90,367.57691,343.98009)">
    <path
       d="m 85.998,426.784 c -1.9,3.459 -3.169,7.678 -5.7,10.379 -2.375,2.535 -5.838,4.646 -8.791,5.601 -2.53,0.818 -4.981,0.679 -7.638,0.448 -2.979,-0.26 -6.121,-0.832 -9.357,-2.215 -4.069,-1.739 -9.26,-4.618 -12.76,-8.277 -3.689,-3.855 -6.989,-10.025 -8.557,-14.561 -1.206,-3.49 -1.593,-6.443 -1.338,-9.906 0.291,-3.944 1.654,-8.898 3.603,-12.458 1.806,-3.298 4.594,-6.147 7.344,-8.369 2.571,-2.078 5.574,-3.988 8.503,-4.745 2.723,-0.704 5.651,-0.796 8.413,0.024 3.186,0.947 5.491,3.142 9.39,6.08 7.443,5.607 20.009,18.852 30.733,26.784 10.4,7.693 24.514,16.969 32.552,20.269 4.229,1.735 7.186,2.49 10.351,2.338 2.748,-0.133 5.32,-1.273 7.599,-2.508 2.223,-1.204 4.072,-2.994 5.947,-4.753 1.936,-1.817 3.711,-3.547 5.465,-6.008 2.25,-3.157 4.763,-7.123 6.414,-11.734 2.069,-5.776 3.594,-13.28 3.917,-20.619 0.366,-8.296 -0.987,-18.616 -2.665,-26.675 -1.448,-6.954 -3.197,-13.013 -6.108,-19.002 -2.975,-6.122 -7.428,-12.917 -11.666,-17.283 -3.392,-3.494 -6.612,-5.897 -10.846,-7.8 -4.811,-2.163 -11.127,-3.772 -16.83,-3.788 -5.885,-0.017 -12.648,1.732 -17.952,3.932 -4.821,2 -8.554,4.584 -12.779,8.203 -5.265,4.51 -12.166,12.716 -15.632,17.649 -2.18,3.102 -2.98,5.454 -4.47,8.18"
       id="path7119"
       inkscape:connector-curvature="0"
       style="opacity:0.2;fill:none;stroke:#000000;stroke-width:2;stroke-linecap:round;stroke-linejoin:round" />
    <path
       style="fill:none;stroke:#e6de56;stroke-width:2.09999997;stroke-linecap:butt;stroke-linejoin:miter;stroke-opacity:0.98387098;stroke-miterlimit:4;stroke-dasharray:none"
       d="m 94.892173,436.07534 -10.980226,-6.10013 v 0"
       id="path29787"
       inkscape:connector-curvature="0" />
    <path
       style="fill:none;stroke:#e6de56;stroke-width:2.09999997;stroke-linecap:butt;stroke-linejoin:miter;stroke-opacity:0.98387098;stroke-miterlimit:4;stroke-dasharray:none"
       d="m 83.667942,446.81156 -4.8801,-6.83214"
       id="path29789"
       inkscape:connector-curvature="0" />
    <path
       style="fill:none;stroke:#e6de56;stroke-width:2.09999997;stroke-linecap:butt;stroke-linejoin:miter;stroke-opacity:0.98387098;stroke-miterlimit:4;stroke-dasharray:none"
       d="M 62.927515,450.47163 64.14754,443.8835"
       id="path29791"
       inkscape:connector-curvature="0" />
    <path
       style="fill:none;stroke:#e6de56;stroke-width:2.09999997;stroke-linecap:butt;stroke-linejoin:miter;stroke-opacity:0.98387098;stroke-miterlimit:4;stroke-dasharray:none"
       d="m 51.94729,443.8835 1.708035,-1.95204"
       id="path29793"
       inkscape:connector-curvature="0" />
    <path
       style="fill:none;stroke:#e6de56;stroke-width:2.09999997;stroke-linecap:butt;stroke-linejoin:miter;stroke-opacity:0.98387098;stroke-miterlimit:4;stroke-dasharray:none"
       d="m 40.479054,423.14307 -3.90408,0.48801"
       id="path29795"
       inkscape:connector-curvature="0" />
    <path
       style="fill:none;stroke:#e6de56;stroke-width:2.09999997;stroke-linecap:butt;stroke-linejoin:miter;stroke-opacity:0.98387098;stroke-miterlimit:4;stroke-dasharray:none"
       d="m 40.235049,412.65086 -7.564155,-7.07615"
       id="path29797"
       inkscape:connector-curvature="0" />
    <path
       style="fill:none;stroke:#e6de56;stroke-width:2.09999997;stroke-linecap:butt;stroke-linejoin:miter;stroke-opacity:0.98387098;stroke-miterlimit:4;stroke-dasharray:none"
       d="m 44.139129,401.91464 -7.32015,-8.05217"
       id="path29799"
       inkscape:connector-curvature="0" />
    <path
       style="fill:none;stroke:#e6de56;stroke-width:2.09999997;stroke-linecap:butt;stroke-linejoin:miter;stroke-opacity:0.98387098;stroke-miterlimit:4;stroke-dasharray:none"
       d="m 50.727265,391.66643 -2.92806,-6.58815"
       id="path29801"
       inkscape:connector-curvature="0" />
    <path
       style="fill:none;stroke:#e6de56;stroke-width:2.09999997;stroke-linecap:butt;stroke-linejoin:miter;stroke-opacity:0.98387098;stroke-miterlimit:4;stroke-dasharray:none"
       d="m 61.21948,387.27433 0.48801,-2.68406"
       id="path29803"
       inkscape:connector-curvature="0" />
    <path
       style="fill:none;stroke:#e6de56;stroke-width:2.09999997;stroke-linecap:butt;stroke-linejoin:miter;stroke-opacity:0.98387098;stroke-miterlimit:4;stroke-dasharray:none"
       d="m 95.136178,405.33071 -1.708035,5.36811"
       id="path29805"
       inkscape:connector-curvature="0" />
    <path
       style="fill:none;stroke:#e6de56;stroke-width:2.09999997;stroke-linecap:butt;stroke-linejoin:miter;stroke-opacity:0.98387098;stroke-miterlimit:4;stroke-dasharray:none"
       d="m 102.94434,410.45481 -2.68406,5.61212"
       id="path29807"
       inkscape:connector-curvature="0" />
    <path
       style="fill:none;stroke:#e6de56;stroke-width:2.09999997;stroke-linecap:butt;stroke-linejoin:miter;stroke-opacity:1;stroke-miterlimit:4;stroke-dasharray:none"
       d="m 113.68056,416.06693 -2.92806,7.56415"
       id="path29809"
       inkscape:connector-curvature="0" />
    <path
       style="fill:none;stroke:#e6de56;stroke-width:2.09999997;stroke-linecap:butt;stroke-linejoin:miter;stroke-opacity:0.98387098;stroke-miterlimit:4;stroke-dasharray:none"
       d="m 124.66078,421.19103 -2.68405,9.27219"
       id="path29811"
       inkscape:connector-curvature="0" />
    <path
       d="M 254.355,372.054 H 373.201 V 25.163 H 254.355 Z"
       id="path7225"
       inkscape:connector-curvature="0"
       style="opacity:1;fill:#037aac;fill-opacity:0.17338712;stroke:#1e2d40;stroke-width:2;stroke-linecap:round;stroke-linejoin:round;stroke-opacity:0.96370963" />
    <path
       d="m 80.14,638.493 c -1.9,3.46 -3.169,7.678 -5.7,10.38 -2.375,2.534 -5.838,4.645 -8.791,5.6 -2.53,0.819 -4.98,0.679 -7.638,0.448 -2.979,-0.26 -6.121,-0.832 -9.357,-2.215 -4.069,-1.739 -9.26,-4.618 -12.76,-8.276 -3.689,-3.855 -6.989,-10.025 -8.556,-14.562 -1.207,-3.489 -1.594,-6.443 -1.338,-9.905 0.29,-3.945 1.653,-8.898 3.602,-12.458 1.806,-3.299 4.594,-6.148 7.344,-8.37 2.571,-2.078 5.574,-3.988 8.503,-4.745 2.723,-0.704 5.651,-0.796 8.414,0.025 3.185,0.946 5.901,3.299 9.389,6.079 5.253,4.187 12.532,12.925 18.195,17.689 4.425,3.723 7.771,6.468 12.538,9.095 5.399,2.977 13.029,6.067 18.46,7.371 4.028,0.967 7.163,1.351 10.89,0.998 4.078,-0.385 9.144,-1.291 12.582,-3.617 3.44,-2.327 6.448,-6.45 8.049,-10.345 1.603,-3.898 2.072,-9.447 1.556,-13.036 -0.389,-2.695 -1.664,-5.164 -2.916,-6.805 -0.95,-1.245 -1.876,-2.011 -3.333,-2.653 -2.011,-0.885 -5.309,-1.579 -8.009,-1.27 -2.948,0.336 -6.435,1.882 -8.953,3.625 -2.395,1.657 -4.309,3.762 -5.92,6.423 -1.93,3.187 -3.716,7.892 -4.233,11.798 -0.481,3.642 -0.172,7.414 0.886,10.858 1.093,3.554 3.381,7.226 5.719,10.1 2.207,2.713 4.778,5.296 7.774,6.822 3.035,1.546 7.186,2.491 10.351,2.338 2.748,-0.133 5.32,-1.273 7.599,-2.508 2.223,-1.204 4.072,-2.994 5.947,-4.753 1.936,-1.816 3.712,-3.547 5.465,-6.008 2.25,-3.157 4.763,-7.123 6.414,-11.734 2.07,-5.776 3.594,-13.279 3.917,-20.619 0.366,-8.295 -0.987,-18.616 -2.665,-26.675 -1.448,-6.954 -3.197,-13.013 -6.108,-19.002 -2.975,-6.121 -7.428,-12.917 -11.666,-17.282 -3.392,-3.495 -6.612,-5.898 -10.846,-7.801 -4.811,-2.162 -11.127,-3.772 -16.83,-3.788 -5.885,-0.017 -12.648,1.732 -17.952,3.932 -4.821,2 -8.554,4.584 -12.779,8.204 -5.265,4.509 -12.166,12.715 -15.632,17.649 -2.18,3.102 -2.98,5.453 -4.47,8.18"
       id="path7121"
       inkscape:connector-curvature="0"
       style="fill:none;fill-opacity:0.97983871;stroke:#000000;stroke-width:2;stroke-linecap:round;stroke-linejoin:round" />
    <circle
       cx="27.483999"
       cy="613.81799"
       id="ellipse7123"
       r="0.82499999"
       style="fill:#ac4640;fill-opacity:1;stroke:none;stroke-width:6;stroke-linecap:round;stroke-linejoin:round" />
    <ellipse
       cx="43.573002"
       cy="594.71399"
       rx="0.64999998"
       ry="0.70300001"
       id="ellipse7125"
       style="fill:#ac4640;fill-opacity:1;stroke:none;stroke-width:6;stroke-linecap:round;stroke-linejoin:round" />
    <ellipse
       cx="85.528"
       cy="621.29102"
       rx="0.64600003"
       ry="0.699"
       id="ellipse7127"
       style="fill:#ac4640;fill-opacity:1;stroke:none;stroke-width:6;stroke-linecap:round;stroke-linejoin:round" />
    <ellipse
       cx="68.609001"
       cy="605.96698"
       rx="0.64999998"
       ry="0.70300001"
       id="ellipse7129"
       style="fill:#ac4640;fill-opacity:1;stroke:none;stroke-width:6;stroke-linecap:round;stroke-linejoin:round" />
    <ellipse
       cx="34.995998"
       cy="642.854"
       rx="0.73400003"
       ry="0.79400003"
       id="ellipse7131"
       style="fill:#ac4640;fill-opacity:1;stroke:none;stroke-width:6;stroke-linecap:round;stroke-linejoin:round" />
    <ellipse
       cx="102.419"
       cy="631.505"
       rx="0.65200001"
       ry="0.70599997"
       id="ellipse7133"
       style="fill:#ac4640;fill-opacity:1;stroke:none;stroke-width:6;stroke-linecap:round;stroke-linejoin:round" />
    <ellipse
       cx="125.073"
       cy="635.72101"
       rx="0.87900001"
       ry="0.95099998"
       id="ellipse7135"
       style="fill:#ac4640;fill-opacity:1;stroke:none;stroke-width:6;stroke-linecap:round;stroke-linejoin:round" />
    <ellipse
       cx="57.672001"
       cy="655.64398"
       rx="0.796"
       ry="0.861"
       id="ellipse7137"
       style="fill:#ac4640;fill-opacity:1;stroke:none;stroke-width:6;stroke-linecap:round;stroke-linejoin:round" />
    <path
       d="M 253.03,710.807 H 367.715 V 698.233 H 253.03 Z"
       id="path7139"
       inkscape:connector-curvature="0"
       style="opacity:1;fill:#69a79f;fill-opacity:0.33870969;stroke:#1e2d40;stroke-width:1.5;stroke-linecap:round;stroke-linejoin:round;stroke-opacity:1" />
    <path
       d="M 253.061,697.58 H 367.747 V 685.006 H 253.061 Z"
       id="path7141"
       inkscape:connector-curvature="0"
       style="opacity:1;fill:#69a79f;fill-opacity:0.33870969;stroke:#1e2d40;stroke-width:1.5;stroke-linecap:round;stroke-linejoin:round;stroke-opacity:1" />
    <path
       d="M 253.403,684.892 H 368.088 V 672.318 H 253.403 Z"
       id="path7143"
       inkscape:connector-curvature="0"
       style="opacity:1;fill:#69a79f;fill-opacity:0.33870969;stroke:#1e2d40;stroke-width:1.5;stroke-linecap:round;stroke-linejoin:round;stroke-opacity:1" />
    <path
       d="M 253.434,671.665 H 368.12 V 659.091 H 253.434 Z"
       id="path7145"
       inkscape:connector-curvature="0"
       style="opacity:1;fill:#69a79f;fill-opacity:0.33870969;stroke:#1e2d40;stroke-width:1.5;stroke-linecap:round;stroke-linejoin:round;stroke-opacity:1" />
    <path
       d="M 253.454,658.915 H 368.139 V 646.342 H 253.454 Z"
       id="path7147"
       inkscape:connector-curvature="0"
       style="opacity:1;fill:#69a79f;fill-opacity:0.33870969;stroke:#1e2d40;stroke-width:1.5;stroke-linecap:round;stroke-linejoin:round;stroke-opacity:1" />
    <path
       d="M 253.485,645.688 H 368.17 V 633.115 H 253.485 Z"
       id="path7149"
       inkscape:connector-curvature="0"
       style="opacity:1;fill:#69a79f;fill-opacity:0.33870969;stroke:#1e2d40;stroke-width:1.5;stroke-linecap:round;stroke-linejoin:round;stroke-opacity:1" />
    <path
       d="M 253.827,633 H 368.512 V 620.427 H 253.827 Z"
       id="path7151"
       inkscape:connector-curvature="0"
       style="opacity:1;fill:#69a79f;fill-opacity:0.33870969;stroke:#1e2d40;stroke-width:1.5;stroke-linecap:round;stroke-linejoin:round;stroke-opacity:1" />
    <ellipse
       cx="144.33"
       cy="622.20697"
       rx="0.87900001"
       ry="0.95099998"
       id="ellipse7153"
       style="fill:#ac4640;fill-opacity:1;stroke:none;stroke-width:6;stroke-linecap:round;stroke-linejoin:round" />
    <ellipse
       cx="120.022"
       cy="642.69897"
       rx="0.87900001"
       ry="0.95099998"
       id="ellipse7155"
       style="fill:#ac4640;fill-opacity:1;stroke:none;stroke-width:6;stroke-linecap:round;stroke-linejoin:round" />
    <ellipse
       cx="114.65"
       cy="612.211"
       rx="0.87900001"
       ry="0.95099998"
       id="ellipse7157"
       style="fill:#ac4640;fill-opacity:1;stroke:none;stroke-width:6;stroke-linecap:round;stroke-linejoin:round" />
    <ellipse
       cx="147.625"
       cy="643.91302"
       rx="0.87900001"
       ry="0.95099998"
       id="ellipse7159"
       style="fill:#ac4640;fill-opacity:1;stroke:none;stroke-width:6;stroke-linecap:round;stroke-linejoin:round" />
    <ellipse
       cx="157.019"
       cy="557.17499"
       rx="0.87900001"
       ry="0.95099998"
       id="ellipse7165"
       style="fill:#ac4640;fill-opacity:1;stroke:none;stroke-width:6;stroke-linecap:round;stroke-linejoin:round" />
    <ellipse
       cx="137.433"
       cy="535.26202"
       rx="0.87900001"
       ry="0.95099998"
       id="ellipse7167"
       style="fill:#ac4640;fill-opacity:1;stroke:none;stroke-width:6;stroke-linecap:round;stroke-linejoin:round" />
    <ellipse
       cx="104.709"
       cy="532.03198"
       rx="0.87900001"
       ry="0.95099998"
       id="ellipse7169"
       style="fill:#ac4640;fill-opacity:1;stroke:none;stroke-width:6;stroke-linecap:round;stroke-linejoin:round" />
    <ellipse
       cx="67.625999"
       cy="566.72498"
       rx="0.87900001"
       ry="0.95099998"
       id="ellipse7171"
       style="fill:#ac4640;fill-opacity:1;stroke:none;stroke-width:6;stroke-linecap:round;stroke-linejoin:round" />
    <ellipse
       cx="82.872002"
       cy="546.508"
       rx="0.87900001"
       ry="0.95099998"
       id="ellipse7173"
       style="fill:#ac4640;fill-opacity:1;stroke:none;stroke-width:6;stroke-linecap:round;stroke-linejoin:round" />
    <ellipse
       cx="79.744003"
       cy="638.90894"
       rx="4.0489955"
       ry="4.3806539"
       id="ellipse7175"
       style="fill:#ac4640;fill-opacity:1;stroke:none;stroke-width:6;stroke-linecap:round;stroke-linejoin:round" />
    <path
       d="M 253.699,620.15 H 368.385 V 607.577 H 253.699 Z"
       id="path7177"
       inkscape:connector-curvature="0"
       style="opacity:1;fill:#69a79f;fill-opacity:0.33870969;stroke:#1e2d40;stroke-width:1.5;stroke-linecap:round;stroke-linejoin:round;stroke-opacity:1" />
    <path
       d="M 253.663,607.981 H 368.348 V 595.407 H 253.663 Z"
       id="path7179"
       inkscape:connector-curvature="0"
       style="opacity:1;fill:#69a79f;fill-opacity:0.33870969;stroke:#1e2d40;stroke-width:1.5;stroke-linecap:round;stroke-linejoin:round;stroke-opacity:1" />
    <path
       d="M 253.694,594.754 H 368.38 V 582.18 H 253.694 Z"
       id="path7181"
       inkscape:connector-curvature="0"
       style="opacity:1;fill:#69a79f;fill-opacity:0.33870969;stroke:#1e2d40;stroke-width:1.5;stroke-linecap:round;stroke-linejoin:round;stroke-opacity:1" />
    <path
       d="M 253.713,582.004 H 368.399 V 569.431 H 253.713 Z"
       id="path7183"
       inkscape:connector-curvature="0"
       style="opacity:1;fill:#69a79f;fill-opacity:0.33870969;stroke:#1e2d40;stroke-width:1.5;stroke-linecap:round;stroke-linejoin:round;stroke-opacity:1" />
    <path
       d="M 253.745,466.163 H 368.43 v 12.573 H 253.745 Z"
       id="path7185"
       inkscape:connector-curvature="0"
       style="opacity:1;fill:#69a79f;fill-opacity:0.85887098;stroke:#1e2d40;stroke-width:5;stroke-linecap:round;stroke-linejoin:round;stroke-opacity:1" />
    <path
       d="m 253.447,479.079 h 114.685 v 12.574 H 253.447 Z"
       id="path7187"
       inkscape:connector-curvature="0"
       style="opacity:1;fill:#69a79f;fill-opacity:0.33870969;stroke:#1e2d40;stroke-width:1.5;stroke-linecap:round;stroke-linejoin:round;stroke-opacity:1" />
    <path
       d="m 253.743,491.182 h 114.686 v 12.574 H 253.743 Z"
       id="path7189"
       inkscape:connector-curvature="0"
       style="opacity:1;fill:#69a79f;fill-opacity:0.33870969;stroke:#1e2d40;stroke-width:1.5;stroke-linecap:round;stroke-linejoin:round;stroke-opacity:1" />
    <path
       d="M 254.085,503.87 H 368.77 v 12.573 H 254.085 Z"
       id="path7191"
       inkscape:connector-curvature="0"
       style="opacity:1;fill:#69a79f;fill-opacity:0.33870969;stroke:#1e2d40;stroke-width:1.5;stroke-linecap:round;stroke-linejoin:round;stroke-opacity:1" />
    <path
       d="M 254.116,517.097 H 368.802 V 529.67 H 254.116 Z"
       id="path7193"
       inkscape:connector-curvature="0"
       style="opacity:1;fill:#69a79f;fill-opacity:0.33870969;stroke:#1e2d40;stroke-width:1.5;stroke-linecap:round;stroke-linejoin:round;stroke-opacity:1" />
    <path
       d="M 254.136,529.846 H 368.821 V 542.42 H 254.136 Z"
       id="path7195"
       inkscape:connector-curvature="0"
       style="opacity:1;fill:#69a79f;fill-opacity:0.33870969;stroke:#1e2d40;stroke-width:1.5;stroke-linecap:round;stroke-linejoin:round;stroke-opacity:1" />
    <path
       d="m 254.167,543.074 h 114.685 v 12.573 H 254.167 Z"
       id="path7197"
       inkscape:connector-curvature="0"
       style="opacity:1;fill:#69a79f;fill-opacity:0.33870969;stroke:#1e2d40;stroke-width:1.5;stroke-linecap:round;stroke-linejoin:round;stroke-opacity:1" />
    <path
       d="M 254.504,556.204 H 369.19 v 12.573 H 254.504 Z"
       id="path7199"
       inkscape:connector-curvature="0"
       style="opacity:1;fill:#69a79f;fill-opacity:0.33870969;stroke:#1e2d40;stroke-width:1.5;stroke-linecap:round;stroke-linejoin:round;stroke-opacity:1" />
    <path
       d="M 254.727,372.62 H 373.573 V 354.531 H 254.727 Z"
       id="path7207"
       inkscape:connector-curvature="0"
       style="fill:none;stroke:#1e2d40;stroke-width:2;stroke-linecap:round;stroke-linejoin:round;stroke-opacity:1" />
    <path
       d="m 185.362,178.01 h 118.846 v 18.089 H 185.362 Z"
       id="path7209"
       inkscape:connector-curvature="0"
       style="fill:#037aac;fill-opacity:1;stroke:#1e2d40;stroke-width:6.5;stroke-linecap:round;stroke-linejoin:round;stroke-opacity:1" />
    <path
       d="m 254.72597,224.545 h 118.847 v 18.089 h -118.847 z"
       id="path7211"
       inkscape:connector-curvature="0"
       style="fill:#037aac;fill-opacity:1;stroke:#1e2d40;stroke-width:2;stroke-linecap:round;stroke-linejoin:round;stroke-opacity:1" />
    <path
       d="m 254.72697,241.957 h 118.846 v 18.09 h -118.846 z"
       id="path7213"
       inkscape:connector-curvature="0"
       style="fill:#037aac;fill-opacity:1;stroke:#1e2d40;stroke-width:2;stroke-linecap:round;stroke-linejoin:round;stroke-opacity:1" />
    <path
       d="m 254.72697,260.211 h 118.846 v 18.088 h -118.846 z"
       id="path7215"
       inkscape:connector-curvature="0"
       style="fill:#037aac;fill-opacity:1;stroke:#1e2d40;stroke-width:2;stroke-linecap:round;stroke-linejoin:round;stroke-opacity:1" />
    <path
       d="m 254.72697,279.24 h 118.846 v 18.089 h -118.846 z"
       id="path7217"
       inkscape:connector-curvature="0"
       style="fill:#037aac;fill-opacity:1;stroke:#1e2d40;stroke-width:2;stroke-linecap:round;stroke-linejoin:round;stroke-opacity:1" />
    <path
       d="m 254.72597,297.582 h 118.847 v 18.089 h -118.847 z"
       id="path7219"
       inkscape:connector-curvature="0"
       style="fill:#037aac;fill-opacity:1;stroke:#1e2d40;stroke-width:2;stroke-linecap:round;stroke-linejoin:round;stroke-opacity:1" />
    <path
       d="m 254.72697,316.612 h 118.846 v 18.089 h -118.846 z"
       id="path7221"
       inkscape:connector-curvature="0"
       style="fill:#037aac;fill-opacity:1;stroke:#1e2d40;stroke-width:2;stroke-linecap:round;stroke-linejoin:round;stroke-opacity:1" />
    <path
       d="m 254.72697,335.502 h 118.846 v 18.089 h -118.846 z"
       id="path7223"
       inkscape:connector-curvature="0"
       style="fill:#037aac;fill-opacity:1;stroke:#1e2d40;stroke-width:2;stroke-linecap:round;stroke-linejoin:round;stroke-opacity:1" />
    <g
       id="g7231"
       style="fill:none;stroke:#000000;stroke-width:2;stroke-linecap:round;stroke-linejoin:round">
      <path
         d="m 136.947,406.371 c 3.769,-21.894 4.401,-43.623 11.308,-65.682 7.63,-24.366 22.343,-51.624 34.375,-73.701 10.445,-19.163 21.754,-34.574 32.631,-51.86"
         id="path7227"
         inkscape:connector-curvature="0" />
      <path
         d="m 221.056,206.588 -10.76,5.171 9.93,6.737 z"
         id="path7229"
         inkscape:connector-curvature="0"
         style="stroke-dasharray:none" />
    </g>
    <g
       id="g7237"
       style="fill:none;stroke:#000000;stroke-width:2;stroke-linecap:round;stroke-linejoin:round">
      <path
         d="m 298.516,213.738 c -8.789,-3.053 -17.579,-6.106 -26.368,-9.159"
         id="path7233"
         inkscape:connector-curvature="0" />
      <path
         d="m 262.399,201.193 7.78,9.054 3.938,-11.336 z"
         id="path7235"
         inkscape:connector-curvature="0"
         style="stroke-dasharray:none" />
    </g>
    <path
       d="m 135.303,475.912 c 3.687,-3.638 7.373,-7.276 11.059,-10.914"
       id="path7239"
       inkscape:connector-curvature="0"
       style="fill:none;stroke:#000000;stroke-width:2;stroke-linecap:round;stroke-linejoin:round" />
    <path
       d="m 135.743,458.217 c 3.045,0.781 5.447,0.942 9.134,2.342 6.316,2.397 16.405,8.427 24.608,12.64"
       id="path7241"
       inkscape:connector-curvature="0"
       style="fill:none;stroke:#000000;stroke-width:2;stroke-linecap:round;stroke-linejoin:round" />
    <path
       d="m 154.782,452.017 c 3.479,1.516 7.046,3.558 10.437,4.548 2.996,0.875 6.992,2.203 8.781,1.392 1.178,-0.534 1.98,-1.852 2.054,-3.259 0.126,-2.384 -3.248,-6.609 -4.873,-9.913"
       id="path7243"
       inkscape:connector-curvature="0"
       style="fill:none;stroke:#000000;stroke-width:2;stroke-linecap:round;stroke-linejoin:round" />
    <path
       d="m 164.615,462.608 c -0.743,-3.681 -1.487,-7.362 -2.23,-11.043"
       id="path7245"
       inkscape:connector-curvature="0"
       style="fill:none;stroke:#1e2d40;stroke-width:2;stroke-linecap:round;stroke-linejoin:round;stroke-opacity:1" />
    <path
       d="m 165.369,433.096 c -0.45,-3.724 -0.9,-7.448 -1.351,-11.172"
       id="path7247"
       inkscape:connector-curvature="0"
       style="fill:none;stroke:#1e2d40;stroke-width:2;stroke-linecap:round;stroke-linejoin:round;stroke-opacity:1" />
    <path
       d="m 155.567,407.845 c 5.09,0.065 10.179,0.13 15.269,0.194"
       id="path7249"
       inkscape:connector-curvature="0"
       style="fill:none;stroke:#000000;stroke-width:2;stroke-linecap:round;stroke-linejoin:round" />
    <path
       d="m 132.877,153.879 c 10.952,0.484 21.904,0.967 32.856,1.451"
       id="path7251"
       inkscape:connector-curvature="0"
       style="fill:none;stroke:#000000;stroke-width:2;stroke-linecap:round;stroke-linejoin:round" />
    <path
       d="m 158.048,156.325 c -1.922,-1.471 -4.531,-2.672 -5.766,-4.413 -1.059,-1.492 -2.379,-3.816 -1.662,-5.071 1.1,-1.928 8.193,-1.804 12.289,-2.705"
       id="path7253"
       inkscape:connector-curvature="0"
       style="fill:none;stroke:#000000;stroke-width:2;stroke-linecap:round;stroke-linejoin:round" />
    <path
       d="m 159.965,132.942 c 4.036,1.119 10.523,4.264 12.11,3.358 0.712,-0.407 0.701,-1.503 0.657,-2.443 -0.061,-1.327 -1.17,-3.153 -1.755,-4.73"
       id="path7255"
       inkscape:connector-curvature="0"
       style="fill:none;stroke:#1e2d40;stroke-width:2;stroke-linecap:round;stroke-linejoin:round;stroke-opacity:1" />
    <path
       d="m 162.849,141.399 c -0.061,-3.358 -0.121,-6.716 -0.182,-10.074"
       id="path7257"
       inkscape:connector-curvature="0"
       style="fill:none;stroke:#1e2d40;stroke-width:2;stroke-linecap:round;stroke-linejoin:round;stroke-opacity:1" />
    <path
       d="m 134.389,163.166 c -1.772,-0.639 -3.969,-0.891 -5.318,-1.917 -1.203,-0.916 -2.403,-1.947 -2.598,-3.67 -0.379,-3.353 6.382,-12.281 6.484,-15.732 0.049,-1.664 -0.413,-2.708 -1.289,-3.741 -1.076,-1.27 -3.497,-1.895 -5.246,-2.843"
       id="path7259"
       inkscape:connector-curvature="0"
       style="fill:none;stroke:#000000;stroke-width:2;stroke-linecap:round;stroke-linejoin:round" />
    <path
       d="m 299.544,222.738 c 5.32,-0.097 15.796,0.507 15.96,-0.29 0.088,-0.427 -3.147,-0.953 -4.164,-1.881 -0.921,-0.84 -2.123,-2.25 -1.851,-3.26 0.391,-1.445 4.429,-2.576 6.643,-3.865"
       id="path7261"
       inkscape:connector-curvature="0"
       style="fill:none;stroke:#000000;stroke-width:2;stroke-linecap:round;stroke-linejoin:round" />
    <path
       d="m 316.767,211.079 c 2.239,0.197 5.985,1.501 6.718,0.59 0.643,-0.798 -1.028,-3.298 -1.543,-4.947"
       id="path7263"
       inkscape:connector-curvature="0"
       style="fill:none;stroke:#000000;stroke-width:2;stroke-linecap:round;stroke-linejoin:round;stroke-opacity:1" />
    <path
       d="m 319.469,215.691 c -0.005,-1.927 -0.01,-3.855 -0.016,-5.782"
       id="path7265"
       inkscape:connector-curvature="0"
       style="fill:none;stroke:#000000;stroke-width:2;stroke-linecap:round;stroke-linejoin:round;stroke-opacity:1" />
    <path
       d="m 319.805,201.275 c -0.071,-0.92 -0.141,-1.84 -0.212,-2.759"
       id="path7267"
       inkscape:connector-curvature="0"
       style="fill:none;stroke:#000000;stroke-width:2;stroke-linecap:round;stroke-linejoin:round" />
    <path
       d="m 317.226,192.27 c 2.22,-0.206 4.44,-0.412 6.66,-0.617"
       id="path7269"
       inkscape:connector-curvature="0"
       style="fill:none;stroke:#000000;stroke-width:2;stroke-linecap:round;stroke-linejoin:round" />
    <path
       d="m 297.052,229.599 c -1.123,-0.132 -2.288,0.054 -3.371,-0.395 -1.262,-0.523 -3.522,-1.704 -3.62,-2.866 -0.12,-1.438 4.788,-3.616 4.744,-5.262 -0.04,-1.525 -2.871,-2.864 -4.307,-4.296"
       id="path7271"
       inkscape:connector-curvature="0"
       style="fill:none;stroke:#000000;stroke-width:2;stroke-linecap:round;stroke-linejoin:round" />
    <g
       id="g7277"
       style="fill:none;stroke:#000000;stroke-width:1.96074975;stroke-linecap:round;stroke-linejoin:round"
       transform="matrix(1.0404367,0,0,1,-20.176405,-1.5)">
      <path
         d="m 392.925,470.963 c 6.233,-2.216 12.648,-3.423 18.699,-6.647 6.662,-3.55 13.683,-8.436 19.324,-14.313 6.001,-6.252 11.238,-15.257 15.287,-22.511 3.446,-6.173 5.897,-11.874 8.063,-17.977 2.121,-5.975 3.629,-12.14 4.864,-18.242 1.212,-5.993 2.143,-11.764 2.516,-18.041 0.404,-6.786 0.115,-13.776 -0.423,-21.283 -0.609,-8.501 -1.903,-19.203 -3.352,-27.088 -1.145,-6.23 -2.179,-10.827 -4.057,-16.548 -2.132,-6.498 -4.804,-12.707 -8.429,-20.287 -4.894,-10.234 -12.667,-25.441 -19.141,-35.171 -5.078,-7.632 -9.94,-13.47 -15.408,-19.215 -5.145,-5.407 -10.079,-9.476 -16.317,-14.469 -7.634,-6.111 -17.506,-14.121 -26.491,-19.098 -8.133,-4.506 -17.922,-8.017 -24.778,-10.105 -4.635,-1.413 -7.987,-1.655 -11.98,-2.482"
         id="path7273"
         inkscape:connector-curvature="0"
         style="stroke-width:1.96074975" />
      <path
         d="m 321.09,186 9.348,7.424 1.728,-11.875 z"
         id="path7275"
         inkscape:connector-curvature="0"
         style="stroke-width:1.96074975;stroke-dasharray:none" />
    </g>
    <path
       d="m 340.376,447.849 c 4.851,-0.739 9.241,-1.955 14.554,-2.218 6.359,-0.316 20.751,2.166 21.06,1.1 0.164,-0.567 -4.082,-1.6 -5.184,-2.912 -0.945,-1.126 -1.669,-2.82 -1.452,-4.132 0.235,-1.421 1.844,-3.022 3.168,-4.034 1.343,-1.027 3.239,-1.37 4.858,-2.056"
       id="path7279"
       inkscape:connector-curvature="0"
       style="fill:none;stroke:#000000;stroke-width:2;stroke-linecap:round;stroke-linejoin:round" />
    <path
       d="m 371.577,418.219 c 5.819,0.35 11.638,0.699 17.458,1.049"
       id="path7281"
       inkscape:connector-curvature="0"
       style="fill:none;stroke:#000000;stroke-width:2;stroke-linecap:round;stroke-linejoin:round" />
    <path
       d="m 371.204,426.079 c 0.023,-6.164 0.046,-12.327 0.069,-18.491"
       id="path7283"
       inkscape:connector-curvature="0"
       style="fill:none;stroke:#000000;stroke-width:2;stroke-linecap:round;stroke-linejoin:round" />
    <ellipse
       style="fill:#ac4640;fill-opacity:1;stroke:none;stroke-width:6;stroke-linecap:round;stroke-linejoin:round"
       id="ellipse7837"
       ry="4.3806539"
       rx="4.0489955"
       cy="654.62109"
       cx="56.589252" />
    <ellipse
       cx="34.950588"
       cy="643.0437"
       rx="4.0489955"
       ry="4.3806539"
       id="ellipse7839"
       style="fill:#ac4640;fill-opacity:1;stroke:none;stroke-width:6;stroke-linecap:round;stroke-linejoin:round" />
    <ellipse
       style="fill:#ac4640;fill-opacity:1;stroke:none;stroke-width:6;stroke-linecap:round;stroke-linejoin:round"
       id="ellipse7841"
       ry="4.3806539"
       rx="4.0489955"
       cy="613.68677"
       cx="27.645815" />
    <ellipse
       cx="43.633617"
       cy="594.2533"
       rx="4.0489955"
       ry="4.3806539"
       id="ellipse7843"
       style="fill:#ac4640;fill-opacity:1;stroke:none;stroke-width:6;stroke-linecap:round;stroke-linejoin:round" />
    <ellipse
       style="fill:#ac4640;fill-opacity:1;stroke:none;stroke-width:6;stroke-linecap:round;stroke-linejoin:round"
       id="ellipse7845"
       ry="4.3806539"
       rx="4.0489955"
       cy="606.38196"
       cx="69.407059" />
    <ellipse
       cx="84.705734"
       cy="621.54279"
       rx="4.0489955"
       ry="4.3806539"
       id="ellipse7847"
       style="fill:#ac4640;fill-opacity:1;stroke:none;stroke-width:6;stroke-linecap:round;stroke-linejoin:round" />
    <ellipse
       style="fill:#ac4640;fill-opacity:1;stroke:none;stroke-width:6;stroke-linecap:round;stroke-linejoin:round"
       id="ellipse7849"
       ry="4.3806539"
       rx="4.0489955"
       cy="631.8797"
       cx="102.6231" />
    <ellipse
       cx="114.20048"
       cy="612.72192"
       rx="4.0489955"
       ry="4.3806539"
       id="ellipse7851"
       style="fill:#ac4640;fill-opacity:1;stroke:none;stroke-width:6;stroke-linecap:round;stroke-linejoin:round" />
    <ellipse
       style="fill:#ac4640;fill-opacity:1;stroke:none;stroke-width:6;stroke-linecap:round;stroke-linejoin:round"
       id="ellipse7853"
       ry="4.3806539"
       rx="4.0489955"
       cy="622.23193"
       cx="143.14392" />
    <ellipse
       cx="124.67525"
       cy="635.32538"
       rx="4.0489955"
       ry="4.3806539"
       id="ellipse7855"
       style="fill:#ac4640;fill-opacity:1;stroke:none;stroke-width:6;stroke-linecap:round;stroke-linejoin:round" />
    <ellipse
       style="fill:#ac4640;fill-opacity:1;stroke:none;stroke-width:6;stroke-linecap:round;stroke-linejoin:round"
       id="ellipse7857"
       ry="4.3806539"
       rx="4.0489955"
       cy="642.90582"
       cx="120.40264" />
    <ellipse
       cx="147.69217"
       cy="644.55975"
       rx="4.0489955"
       ry="4.3806539"
       id="ellipse7859"
       style="fill:#ac4640;fill-opacity:1;stroke:none;stroke-width:6;stroke-linecap:round;stroke-linejoin:round" />
    <ellipse
       style="fill:#ac4640;fill-opacity:1;stroke:none;stroke-width:6;stroke-linecap:round;stroke-linejoin:round;stroke-opacity:1"
       id="ellipse7861"
       ry="4.3806539"
       rx="4.0489955"
       cy="615.23712"
       cx="164.70337" />
    <ellipse
       cx="165.02203"
       cy="586.578"
       rx="4.0489955"
       ry="4.3806539"
       id="ellipse7863"
       style="fill:#ac4640;fill-opacity:1;stroke:none;stroke-width:6;stroke-linecap:round;stroke-linejoin:round;stroke-opacity:1" />
    <ellipse
       style="fill:#ac4640;fill-opacity:1;stroke:none;stroke-width:6;stroke-linecap:round;stroke-linejoin:round"
       id="ellipse7865"
       ry="4.3806539"
       rx="4.0489955"
       cy="558.2807"
       cx="156.78867" />
    <ellipse
       cx="135.97696"
       cy="534.43683"
       rx="4.0489955"
       ry="4.3806539"
       id="ellipse7867"
       style="fill:#ac4640;fill-opacity:1;stroke:none;stroke-width:6;stroke-linecap:round;stroke-linejoin:round" />
    <ellipse
       style="fill:#ac4640;fill-opacity:1;stroke:none;stroke-width:6;stroke-linecap:round;stroke-linejoin:round"
       id="ellipse7869"
       ry="4.3806539"
       rx="4.0489955"
       cy="531.95593"
       cx="104.55266" />
    <ellipse
       cx="83.465294"
       cy="546.15198"
       rx="4.0489955"
       ry="4.3806539"
       id="ellipse7871"
       style="fill:#ac4640;fill-opacity:1;stroke:none;stroke-width:6;stroke-linecap:round;stroke-linejoin:round" />
    <ellipse
       style="fill:#ac4640;fill-opacity:1;stroke:none;stroke-width:6;stroke-linecap:round;stroke-linejoin:round"
       id="ellipse7873"
       ry="4.3806539"
       rx="4.0489955"
       cy="566.82587"
       cx="68.028793" />
    <path
       style="fill:#037aac;fill-opacity:1;stroke:#1e2d40;stroke-width:2;stroke-linecap:round;stroke-linejoin:round;stroke-opacity:1"
       inkscape:connector-curvature="0"
       id="path7963"
       d="M 254.727,354.531 H 373.573 V 372.62 H 254.727 Z" />
    <path
       style="fill:none;stroke:#000000;stroke-width:2.00024983;stroke-linecap:round;stroke-linejoin:round;stroke-miterlimit:4;stroke-dasharray:4.00049966,4.00049966;stroke-dashoffset:0"
       inkscape:connector-curvature="0"
       id="path29785"
       d="m 97.087324,434.94485 c -1.9,3.46 -6.014415,7.26376 -9.711426,10.12935 -3.414509,2.64662 -7.114338,5.26997 -11.296517,6.35295 -3.111813,0.80581 -6.474212,0.48535 -9.643213,-0.0533 -3.251619,-0.55269 -6.48618,-1.59376 -9.357,-3.21761 -4.074399,-2.30464 -8.137142,-5.1489 -10.755786,-9.02895 -3.642145,-5.39658 -5.849243,-12.06388 -6.049485,-18.57143 -0.215604,-7.00677 1.625181,-14.37185 5.27182,-20.35878 3.279523,-5.38421 7.939536,-11.24357 14.093439,-12.6127 2.858553,-0.63597 5.720477,1.37895 8.413,2.53052 3.308843,1.41516 6.251346,3.56736 9.39,5.32804 8.888298,4.98603 17.733781,10.05348 26.737774,14.82741 6.1597,3.26588 12.69679,5.8363 18.66014,9.44827 3.356,2.03271 6.46765,4.81295 9.57665,6.84395"
       sodipodi:nodetypes="caaaaaaaaaaaac" />
    <path
       d="M 125.34,432.685 141.145,420.02"
       id="path7203"
       inkscape:connector-curvature="0"
       style="fill:none;stroke:#f39a56;stroke-width:3.95024991;stroke-linecap:round;stroke-linejoin:round;stroke-miterlimit:4;stroke-dasharray:none;stroke-opacity:1" />
    <path
       d="M 139.169,436.349 126.481,415.416"
       id="path7205"
       inkscape:connector-curvature="0"
       style="fill:none;stroke:#f39a56;stroke-width:3.95024991;stroke-linecap:round;stroke-linejoin:round;stroke-miterlimit:4;stroke-dasharray:none;stroke-opacity:1" />
  </g>
</svg>
